{"title":"Legend.of.Guardians.2010.cam.XviD...vice","uid":5860828,"size":689847858,"categoryP":"video","categoryS":"movies","magnet":"?xt=urn:btih:128d3971a85b7af94d48883d7d2a7bb9795a7216&amp;dn=Legend.of.Guardians.2010.cam.XviD...vice&amp;tr=udp%3A%2F%2Ftracker.openbittorrent.com%3A80&amp;tr=udp%3A%2F%2Fopen.demonii.com%3A1337&amp;tr=udp%3A%2F%2Ftracker.coppersurfer.tk%3A6969&amp;tr=udp%3A%2F%2Fexodus.desync.com%3A6969","seeders":0,"leechers":0,"uploader":"vicerock","files":-1,"time":1285960627,"description":"LEGEND of GUARDIANS 2010 CAM XviD\n\nFormat : AVI\nFormat/Info : Audio Video Interleave\nFile size : 650 MiB\nDuration : 1h 27mn\nOverall bit rate : 1 034 Kbps\nEncoded by : vicerock/vicez\nWriting library : VirtualDub build 32618/release\nOriginal source form : recoded from mangets version\n\nVideo\nID : 0\nFormat : MPEG-4 Visual\nFormat profile : AdvancedSimple@L5\nFormat settings, BVOP : Yes\nFormat settings, QPel : No\nFormat settings, GMC : No warppoints\nFormat settings, Matrix : Default (H.263)\nMuxing mode : Packed bitstream\nCodec ID : XVID\nCodec ID/Hint : XviD\nDuration : 1h 27mn\nBit rate : 882 Kbps\nWidth : 720 pixels\nHeight : 304 pixels\nDisplay aspect ratio : 2.35:1\nFrame rate : 59.940 fps\nResolution : 24 bits\nColorimetry : 4:2:0\nScan type : Progressive\nBits/(Pixel*Frame) : 0.067\nStream size : 555 MiB (85%)\nWriting library : XviD 1.1.2 (UTC 2006-11-01)\n\nAudio\nID : 1\nFormat : MPEG Audio\nFormat version : Version 1\nFormat profile : Layer 2\nCodec ID : 50\nCodec ID/Hint : MP1\nDuration : 1h 27mn\nBit rate mode : Constant\nBit rate : 128 Kbps\nChannel(s) : 2 channels\nSampling rate : 48.0 KHz\nResolution : 16 bits\nStream size : 80.5 MiB (12%)\nAlignment : Split accross interleaves\nInterleave, duration : 17 ms (1.00 video frame)\nInterleave, preload duration : 500 ms\n\nSoren (Jim Sturgess) is a young adventurous Barn Owl who loves hearing stories from his father Noctus (Hugo Weaving) about the legend of the Guardians of Ga'Hoole, a legendary alliance of owls that are sworn to protect the Kingdom of Ga'Hoole. His younger sister Eglantine (Adrienne deFaria) is enamoured by these stories, but his older brother, Kludd (Ryan Kwanten), is jealous of the attention Soren receives. One night, after falling out of their tree, Soren and Kludd are attacked by a tasmanian devil and then captured by owls working for the evil Metalbeak (Joel Edgerton) and his mate Nyra (Helen Mirren).\n &lt;a href=&quot;\nhttp://www.imdb.com/title/tt1219342/&quot; rel=&quot;nofollow&quot; target=&quot;_NEW&quot;&gt;\nhttp://www.imdb.com/title/tt1219342/&lt;/a&gt;\n\nPLEASE SEED AND ENJOY THANKS\n\nscreen shots\n &lt;a href=&quot;\nhttp://img299.imageshack.us/img299/1321/logxvidviceavisnapshot0.jpg&quot; rel=&quot;nofollow&quot; target=&quot;_NEW&quot;&gt;\nhttp://img299.imageshack.us/img299/1321/logxvidviceavisnapshot0.jpg&lt;/a&gt; &lt;a href=&quot;\nhttp://img836.imageshack.us/img836/1321/logxvidviceavisnapshot0.jpg&quot; rel=&quot;nofollow&quot; target=&quot;_NEW&quot;&gt;\nhttp://img836.imageshack.us/img836/1321/logxvidviceavisnapshot0.jpg&lt;/a&gt; &lt;a href=&quot;\nhttp://img203.imageshack.us/img203/1321/logxvidviceavisnapshot0.jpg&quot; rel=&quot;nofollow&quot; target=&quot;_NEW&quot;&gt;\nhttp://img203.imageshack.us/img203/1321/logxvidviceavisnapshot0.jpg&lt;/a&gt; &lt;a href=&quot;\nhttp://img228.imageshack.us/img228/1321/logxvidviceavisnapshot0.jpg&quot; rel=&quot;nofollow&quot; target=&quot;_NEW&quot;&gt;\nhttp://img228.imageshack.us/img228/1321/logxvidviceavisnapshot0.jpg&lt;/a&gt;","torrent":{"xt":"urn:btih:128d3971a85b7af94d48883d7d2a7bb9795a7216","amp;dn":"Legend.of.Guardians.2010.cam.XviD...vice","amp;tr":["udp%3A%2F%2Ftracker.openbittorrent.com%3A80","udp%3A%2F%2Fopen.demonii.com%3A1337","udp%3A%2F%2Ftracker.coppersurfer.tk%3A6969","udp%3A%2F%2Fexodus.desync.com%3A6969"],"infoHash":"128d3971a85b7af94d48883d7d2a7bb9795a7216","infoHashBuffer":{"type":"Buffer","data":[18,141,57,113,168,91,122,249,77,72,136,61,125,42,123,185,121,90,114,22]},"announce":[],"urlList":[]}}